<svg width="25" height="24" viewBox="0 0 25 24" fill="none" xmlns="http://www.w3.org/2000/svg">
<path fill-rule="evenodd" clip-rule="evenodd" d="M7.55097 0.0726719C6.27345 0.130848 5.40048 0.333408 4.63812 0.630048C3.84858 0.936384 3.1802 1.34736 2.5123 2.01418C1.8444 2.68099 1.43447 3.3504 1.12812 4.1399C0.831468 4.90272 0.6289 5.77517 0.570722 7.05264C0.511583 8.33213 0.498047 8.74118 0.498047 12C0.498047 15.2588 0.511583 15.6679 0.570722 16.9474C0.6289 18.2249 0.831468 19.0973 1.12812 19.8601C1.43447 20.6491 1.8445 21.3193 2.5123 21.9858C3.18011 22.6523 3.84858 23.0628 4.63812 23.37C5.40192 23.6666 6.27345 23.8692 7.55097 23.9273C8.83118 23.9855 9.23958 24 12.4985 24C15.7575 24 16.1665 23.9865 17.4461 23.9273C18.7237 23.8692 19.5961 23.6666 20.3589 23.37C21.148 23.0628 21.8169 22.6526 22.4848 21.9858C23.1526 21.319 23.5617 20.6491 23.8689 19.8601C24.1656 19.0973 24.3691 18.2248 24.4263 16.9474C24.4845 15.6669 24.498 15.2588 24.498 12C24.498 8.74118 24.4845 8.33213 24.4263 7.05264C24.3682 5.77507 24.1656 4.90224 23.8689 4.1399C23.5617 3.35088 23.1516 2.68205 22.4848 2.01418C21.8179 1.3463 21.148 0.936384 20.3599 0.630048C19.5961 0.333408 18.7236 0.129888 17.447 0.0726719C16.1675 0.0144961 15.7584 0 12.4995 0C9.24054 0 8.83118 0.013536 7.55097 0.0726719ZM8.49901 12C8.49901 9.79096 10.2894 7.9997 12.4985 7.9997C14.7077 7.9997 16.499 9.79096 16.499 12C16.499 14.2091 14.7077 16.0003 12.4985 16.0003C10.2894 16.0003 8.49901 14.2091 8.49901 12ZM6.33643 12C6.33643 15.4032 9.09519 18.1619 12.4985 18.1619C15.9019 18.1619 18.6606 15.4032 18.6606 12C18.6606 8.59682 15.9019 5.83816 12.4985 5.83816C9.09519 5.83816 6.33643 8.59682 6.33643 12ZM17.4645 5.59384C17.4644 5.87865 17.5488 6.15709 17.7069 6.39396C17.865 6.63083 18.0899 6.81549 18.353 6.92459C18.6161 7.03368 18.9056 7.06231 19.185 7.00686C19.4643 6.95141 19.721 6.81437 19.9224 6.61306C20.1239 6.41175 20.2612 6.15522 20.3169 5.87591C20.3725 5.5966 20.3441 5.30706 20.2352 5.04389C20.1263 4.78072 19.9419 4.55575 19.7051 4.39742C19.4684 4.2391 19.1894 4.15453 18.9046 4.15442C18.5228 4.1546 18.1567 4.30629 17.8867 4.57618C17.6167 4.84607 17.4649 5.21209 17.4645 5.59384Z" fill="#525252"/>
</svg>
