<svg width="28" height="28" viewBox="0 0 28 28" fill="none" xmlns="http://www.w3.org/2000/svg">
<path d="M25.9331 0H2.06694C1.51876 0 0.993022 0.217767 0.605394 0.605394C0.217767 0.993022 0 1.51876 0 2.06694V25.9331C0 26.4812 0.217767 27.007 0.605394 27.3946C0.993022 27.7822 1.51876 28 2.06694 28H25.9331C26.4812 28 27.007 27.7822 27.3946 27.3946C27.7822 27.007 28 26.4812 28 25.9331V2.06694C28 1.51876 27.7822 0.993022 27.3946 0.605394C27.007 0.217767 26.4812 0 25.9331 0ZM8.34556 23.8525H4.13583V10.4806H8.34556V23.8525ZM6.23778 8.6275C5.76026 8.62481 5.29423 8.48073 4.89852 8.21344C4.50281 7.94614 4.19515 7.56762 4.01436 7.12564C3.83357 6.68365 3.78776 6.19802 3.8827 5.73003C3.97765 5.26204 4.2091 4.83266 4.54785 4.49608C4.88659 4.1595 5.31745 3.93081 5.78604 3.83887C6.25464 3.74693 6.73996 3.79586 7.18078 3.97948C7.62159 4.16311 7.99813 4.47319 8.26288 4.87061C8.52762 5.26803 8.66871 5.73497 8.66833 6.2125C8.67284 6.53221 8.61293 6.84955 8.49218 7.14561C8.37143 7.44166 8.19231 7.71038 7.9655 7.93574C7.73869 8.16111 7.46882 8.3385 7.17199 8.45734C6.87517 8.57619 6.55745 8.63406 6.23778 8.6275ZM23.8622 23.8642H19.6544V16.5589C19.6544 14.4044 18.7386 13.7394 17.5564 13.7394C16.3081 13.7394 15.0831 14.6806 15.0831 16.6133V23.8642H10.8733V10.4903H14.9217V12.3433H14.9761C15.3825 11.5208 16.8058 10.115 18.9778 10.115C21.3267 10.115 23.8642 11.5092 23.8642 15.5925L23.8622 23.8642Z" fill="#525252"/>
</svg>
