<svg width="391" height="46" viewBox="0 0 391 46" fill="none" xmlns="http://www.w3.org/2000/svg">
<path fill-rule="evenodd" clip-rule="evenodd" d="M7.34643 0L0 7.26316H6.81378C4.49461 9.52529 2.69204 12.2402 1.52434 15.2297C0.35664 18.2192 -0.14979 21.4158 0.0382794 24.6096C0.226348 27.8035 1.10466 30.9225 2.6156 33.762C4.12653 36.6014 6.23593 39.0971 8.80538 41.0854C11.3748 43.0736 14.3463 44.5095 17.5247 45.2987C20.7031 46.0879 24.0167 46.2126 27.2481 45.6647C30.4794 45.1168 33.6712 43.579 36.7322 41.1579V32.6842C36.12 33.2895 33.999 34.9728 32.1658 36.1791C32.0562 36.2512 31.9458 36.3219 31.8346 36.3913V29.0194C34.5894 28.7183 36.7322 26.4092 36.7322 23.6053C36.7322 20.8014 34.5894 18.4922 31.8346 18.1911V7.26316H36.7322L45.303 0H7.34643ZM22.0393 7.26316H6.81378L12.0085 12.3301C10.4217 13.8779 9.18836 15.7354 8.3894 17.7809C7.59045 19.8263 7.24395 22.0135 7.37263 24.1988C7.50131 26.384 8.10226 28.5181 9.13605 30.4609C10.1699 32.4036 11.6131 34.1112 13.3712 35.4716C15.1292 36.832 17.1623 37.8144 19.337 38.3544C21.5117 38.8944 23.7789 38.9797 25.9899 38.6049C27.6046 38.3311 29.1626 37.8163 30.6101 37.0817V29.0194C27.8553 28.7183 25.7125 26.4092 25.7125 23.6053C25.7125 20.8014 27.8553 18.4922 30.6101 18.1911V7.26316H22.0393ZM22.0393 7.26316L14.6929 14.5263V36.3158L22.0393 29.0526V7.26316ZM48.9512 46V3.68L41.6048 10.9432V46H48.9512ZM109.097 0V7.26316V46H101.701V7.12074L109.097 0ZM109.097 7.26316H115.186V46H122.925V0H116.404L109.097 7.26316ZM266.181 0L258.874 7.26316H265.651C263.345 9.52529 261.552 12.2402 260.39 15.2297C259.229 18.2192 258.725 21.4158 258.912 24.6096C259.1 27.8035 259.973 30.9225 261.476 33.762C262.978 36.6014 265.076 39.0971 267.632 41.0854C270.187 43.0736 273.143 44.5095 276.304 45.2987C279.465 46.0879 282.761 46.2126 285.974 45.6647C289.188 45.1168 292.362 43.579 295.407 41.1579V32.6842C294.798 33.2895 292.688 34.9728 290.865 36.1791C290.756 36.2512 290.646 36.3219 290.536 36.3913V29.0194C293.276 28.7183 295.407 26.4092 295.407 23.6053C295.407 20.8013 293.276 18.4922 290.536 18.1911V7.26316H295.407L303.931 0H266.181ZM280.794 7.26316H265.651L270.818 12.3301C269.239 13.8779 268.013 15.7354 267.218 17.7809C266.424 19.8263 266.079 22.0135 266.207 24.1988C266.335 26.384 266.933 28.5181 267.961 30.4609C268.989 32.4036 270.424 34.1112 272.173 35.4716C273.921 36.832 275.943 37.8144 278.106 38.3544C280.269 38.8944 282.524 38.9797 284.723 38.6049C286.329 38.3311 287.878 37.8163 289.318 37.0817V29.0194C286.578 28.7183 284.447 26.4092 284.447 23.6053C284.447 20.8013 286.578 18.4922 289.318 18.1911V7.26316H280.794ZM280.794 7.26316L273.487 14.5263V36.3158L280.794 29.0526V7.26316ZM299.669 19.3684L306.975 12.1053V4.84211L299.669 12.1053V19.3684ZM356.903 16.9474L364.21 16.9474L371.516 24.2105L356.903 38.7368H364.21L371.516 46H356.903L349.597 38.7368V24.2105L356.903 16.9474ZM356.903 24.2105V31.4737L364.21 24.2105L356.903 24.2105ZM299.669 24.2105V46H306.975V16.9474L299.669 24.2105ZM311.238 24.2105V46H318.544V24.2105H324.633V46H331.939V24.2105H338.028V46H345.334V16.9474H339.246L331.939 24.2105V16.9474H325.85L318.544 24.2105V16.9474L311.238 24.2105ZM376.387 46L369.081 38.7368L376.387 31.4737V38.7368H383.694V31.4737L373.952 24.2105L381.258 16.9474H391V24.2105H381.258L391 31.4737V38.7368L383.694 46H376.387ZM218.13 16.9472L210.824 16.9472L203.517 24.2104V38.7367L210.824 45.9999H225.437L218.13 38.7367H210.824L225.437 24.2104L218.13 16.9472ZM210.824 31.4735V24.2104L218.13 24.2104L210.824 31.4735ZM165.158 45.9999V24.2104L172.465 16.9472V24.2104V45.9999H165.158ZM185.86 24.2104V45.9999H178.554V24.2104H172.465L179.771 16.9472H185.86V24.2104ZM191.949 24.2104H185.86L193.167 16.9472H199.255V45.9999H191.949V24.2104ZM223.001 38.7367L230.308 45.9999H237.614L244.921 38.7367V31.4735L235.179 24.2104H244.921V16.9472H235.179L227.872 24.2104L237.614 31.4735V38.7367H230.308V31.4735L223.001 38.7367ZM55.09 46H62.8288V16.56H56.3077L49.0012 23.8232H55.09V46ZM129.054 46H136.793V0H130.272L122.965 7.26316H129.054V46ZM155.145 16.9472L147.838 16.9472L140.532 24.2104V38.7367L147.838 45.9999H162.451L155.145 38.7367H147.838L162.451 24.2104L155.145 16.9472ZM147.838 31.4735V24.2104L155.145 24.2104L147.838 31.4735ZM73.8742 16.9472L81.1807 16.9472L88.4872 24.2104L73.8742 38.7367H81.1807L88.4872 45.9999H73.8742L66.5677 38.7367V24.2104L73.8742 16.9472ZM73.8742 24.2104V31.4735L81.1807 24.2104L73.8742 24.2104Z" fill="black"/>
</svg>
