<svg width="16" height="16" viewBox="0 0 16 16" fill="none" xmlns="http://www.w3.org/2000/svg">
<path fill-rule="evenodd" clip-rule="evenodd" d="M1.25 7.00016C1.25 3.5585 4.28045 0.583496 8 0.583496C11.7196 0.583496 14.75 3.5585 14.75 7.00016C14.75 9.46969 13.2423 11.57 11.7724 12.9966C11.0255 13.7215 10.2564 14.3044 9.62319 14.7098C9.3071 14.9122 9.01608 15.076 8.77109 15.1924C8.64916 15.2504 8.529 15.3012 8.41647 15.339C8.32101 15.3712 8.16702 15.4167 8 15.4167C7.83298 15.4167 7.67899 15.3712 7.58353 15.339C7.471 15.3012 7.35084 15.2504 7.22891 15.1924C6.98392 15.076 6.6929 14.9122 6.37681 14.7098C5.74364 14.3044 4.97446 13.7215 4.22765 12.9966C2.75774 11.57 1.25 9.46969 1.25 7.00016ZM8 9.3335C9.10457 9.3335 10 8.43807 10 7.3335C10 6.22893 9.10457 5.3335 8 5.3335C6.89543 5.3335 6 6.22893 6 7.3335C6 8.43807 6.89543 9.3335 8 9.3335Z" fill="#272727"/>
</svg>
