<svg width="22" height="19" viewBox="0 0 22 19" fill="none" xmlns="http://www.w3.org/2000/svg">
<path fill-rule="evenodd" clip-rule="evenodd" d="M2.64282 8C2.64282 4.68629 5.32911 2 8.64282 2C11.9565 2 14.6428 4.68629 14.6428 8C14.6428 11.3137 11.9565 14 8.64282 14C5.32911 14 2.64282 11.3137 2.64282 8ZM8.64282 0C4.22454 0 0.642822 3.58172 0.642822 8C0.642822 12.4183 4.22454 16 8.64282 16C11.001 16 13.1209 14.9797 14.585 13.3564L19.9357 18.7071C20.3262 19.0976 20.9594 19.0976 21.3499 18.7071C21.7405 18.3166 21.7405 17.6834 21.3499 17.2929L15.7443 11.6872C16.3184 10.5838 16.6428 9.32981 16.6428 8C16.6428 3.58172 13.0611 0 8.64282 0Z" fill="black"/>
</svg>
