<svg width="16" height="16" viewBox="0 0 16 16" fill="none" xmlns="http://www.w3.org/2000/svg">
<path fill-rule="evenodd" clip-rule="evenodd" d="M7.91918 1.25L8 1.25001L8.08082 1.25C8.93284 1.24994 9.45182 1.2499 9.8995 1.3208C12.3599 1.71049 14.2895 3.64013 14.6792 6.10051C14.7501 6.54818 14.7501 7.06717 14.75 7.91918L14.75 8.00001L14.75 8.08084C14.7501 8.93285 14.7501 9.45183 14.6792 9.89951C14.2895 12.3599 12.3599 14.2895 9.8995 14.6792C9.45183 14.7501 8.93284 14.7501 8.08083 14.75L8 14.75L7.91917 14.75C7.06716 14.7501 6.54818 14.7501 6.1005 14.6792C3.64012 14.2895 1.71048 12.3599 1.32079 9.89951C1.24989 9.45183 1.24993 8.93285 1.25 8.08083L1.25 8.00001L1.25 7.91919C1.24993 7.06717 1.24989 6.54819 1.32079 6.10051C1.71048 3.64013 3.64012 1.71049 6.1005 1.3208C6.54818 1.2499 7.06716 1.24994 7.91918 1.25ZM10.4697 11.5303C10.7626 11.8232 11.2374 11.8232 11.5303 11.5303C11.8232 11.2374 11.8232 10.7626 11.5303 10.4697L8.75 7.68935V4.66667C8.75 4.25246 8.41421 3.91667 8 3.91667C7.58579 3.91667 7.25 4.25246 7.25 4.66667V8.00001C7.25 8.19892 7.32902 8.38969 7.46967 8.53034L10.4697 11.5303Z" fill="#18191A"/>
</svg>
