<svg width="16" height="16" viewBox="0 0 16 16" fill="none" xmlns="http://www.w3.org/2000/svg">
<path fill-rule="evenodd" clip-rule="evenodd" d="M8.75 1.3335C8.75 0.919282 8.41421 0.583496 8 0.583496C7.58579 0.583496 7.25 0.919283 7.25 1.3335L7.25 2.66683C7.25 3.08104 7.58579 3.41683 8 3.41683C8.41422 3.41683 8.75 3.08104 8.75 2.66683L8.75 1.3335ZM8.75 13.3335C8.75 12.9193 8.41422 12.5835 8 12.5835C7.58579 12.5835 7.25 12.9193 7.25 13.3335L7.25 14.6668C7.25 15.081 7.58578 15.4168 8 15.4168C8.41421 15.4168 8.75 15.081 8.75 14.6668L8.75 13.3335ZM8 3.91683C5.74484 3.91683 3.91667 5.745 3.91667 8.00016C3.91667 10.2553 5.74484 12.0835 8 12.0835C10.2552 12.0835 12.0833 10.2553 12.0833 8.00016C12.0833 5.745 10.2552 3.91683 8 3.91683ZM0.583332 8.00016C0.583332 7.58595 0.919118 7.25016 1.33333 7.25016H2.66666C3.08088 7.25016 3.41666 7.58595 3.41666 8.00016C3.41666 8.41438 3.08088 8.75016 2.66666 8.75016H1.33333C0.919119 8.75016 0.583332 8.41438 0.583332 8.00016ZM12.5833 8.00016C12.5833 7.58595 12.9191 7.25016 13.3333 7.25016H14.6667C15.0809 7.25016 15.4167 7.58595 15.4167 8.00016C15.4167 8.41438 15.0809 8.75016 14.6667 8.75016H13.3333C12.9191 8.75016 12.5833 8.41438 12.5833 8.00016ZM3.53033 2.4695C3.23744 2.1766 2.76257 2.1766 2.46967 2.46949C2.17678 2.76238 2.17677 3.23725 2.46966 3.53015L3.46968 4.53018C3.76257 4.82307 4.23744 4.82308 4.53034 4.53019C4.82324 4.2373 4.82324 3.76242 4.53035 3.46953L3.53033 2.4695ZM12.5303 11.4695C12.2374 11.1766 11.7626 11.1766 11.4697 11.4695C11.1768 11.7624 11.1768 12.2373 11.4697 12.5302L12.4697 13.5302C12.7626 13.8231 13.2374 13.8231 13.5303 13.5302C13.8232 13.2373 13.8232 12.7624 13.5303 12.4695L12.5303 11.4695ZM2.46967 13.5305C2.17678 13.2376 2.17678 12.7627 2.46967 12.4698L3.46967 11.4698C3.76256 11.1769 4.23744 11.1769 4.53033 11.4698C4.82322 11.7627 4.82322 12.2376 4.53033 12.5305L3.53033 13.5305C3.23744 13.8234 2.76256 13.8234 2.46967 13.5305ZM11.4697 4.53049C11.1768 4.2376 11.1768 3.76273 11.4697 3.46983L12.4697 2.46983C12.7626 2.17694 13.2374 2.17694 13.5303 2.46983C13.8232 2.76273 13.8232 3.2376 13.5303 3.53049L12.5303 4.53049C12.2374 4.82339 11.7626 4.82339 11.4697 4.53049Z" fill="#18191A"/>
</svg>
