<svg width="28" height="28" viewBox="0 0 28 28" fill="none" xmlns="http://www.w3.org/2000/svg">
<path d="M24.5665 8.37753C24.5773 8.62394 24.5773 8.85914 24.5773 9.10554C24.5881 16.576 19.0995 25.2 9.06242 25.2C6.10206 25.2 3.19573 24.3152 0.699951 22.6576C1.13212 22.7136 1.56429 22.736 1.99646 22.736C4.44902 22.736 6.83675 21.8848 8.77071 20.3056C6.43699 20.2608 4.38419 18.6816 3.67111 16.3744C4.49223 16.5424 5.33496 16.5088 6.13448 16.2736C3.59548 15.7584 1.76957 13.44 1.75877 10.7407C1.75877 10.7183 1.75877 10.6959 1.75877 10.6735C2.51506 11.1103 3.36859 11.3567 4.23293 11.3791C1.8452 9.72154 1.09971 6.41753 2.54747 3.83032C5.32416 7.36953 9.40816 9.50874 13.7947 9.74394C13.3517 7.78393 13.9567 5.72313 15.3721 4.33432C17.5653 2.19511 21.0227 2.30711 23.0971 4.58072C24.318 4.33432 25.4956 3.86392 26.5653 3.20312C26.1547 4.51352 25.3012 5.62233 24.1667 6.32793C25.2471 6.19353 26.306 5.89113 27.2999 5.44312C26.5653 6.58553 25.6361 7.57113 24.5665 8.37753Z" fill="#525252"/>
</svg>
