<svg width="18" height="16" viewBox="0 0 18 16" fill="none" xmlns="http://www.w3.org/2000/svg">
<path d="M17.92 2.06809C17.3377 2.31867 16.7256 2.49316 16.0988 2.58725C16.3918 2.53701 16.8231 2.00947 16.9947 1.79595C17.2555 1.47386 17.4543 1.10618 17.5809 0.711567C17.5809 0.68226 17.6102 0.640392 17.5809 0.619458C17.5661 0.611396 17.5496 0.607171 17.5327 0.607171C17.5159 0.607171 17.4993 0.611396 17.4846 0.619458C16.8039 0.988072 16.0794 1.26941 15.3284 1.45682C15.3022 1.46481 15.2743 1.46553 15.2478 1.45889C15.2212 1.45225 15.197 1.43851 15.1777 1.41913C15.1192 1.34952 15.0563 1.28379 14.9893 1.22236C14.6829 0.94789 14.3354 0.723252 13.9593 0.556656C13.4517 0.348396 12.9034 0.258203 12.3558 0.292889C11.8244 0.326445 11.3057 0.468959 10.8318 0.711567C10.3651 0.967348 9.95495 1.31483 9.62598 1.73314C9.27993 2.16369 9.0301 2.66335 8.89329 3.19852C8.78047 3.70757 8.76768 4.2337 8.85561 4.74763C8.85561 4.83555 8.85561 4.84811 8.78025 4.83555C5.79507 4.39594 3.3458 3.33668 1.34451 1.06326C1.25659 0.962775 1.21053 0.962775 1.13936 1.06326C0.268507 2.38628 0.691373 4.47968 1.77994 5.51381C1.92647 5.65198 2.0772 5.78595 2.2363 5.91156C1.7372 5.87612 1.25029 5.74087 0.804416 5.51381C0.72068 5.45938 0.674625 5.48869 0.670439 5.58918C0.65857 5.72848 0.65857 5.86855 0.670439 6.00785C0.757798 6.67548 1.02091 7.30792 1.43285 7.84051C1.8448 8.3731 2.39081 8.78673 3.01504 9.03909C3.16721 9.10427 3.32577 9.15338 3.48815 9.18563C3.0261 9.27659 2.55222 9.29074 2.08557 9.22749C1.98509 9.20656 1.94741 9.26099 1.98509 9.35728C2.60055 11.032 3.93613 11.5428 4.91584 11.8275C5.04982 11.8484 5.1838 11.8484 5.33452 11.8819C5.33452 11.8819 5.33452 11.8819 5.3094 11.907C5.02051 12.4346 3.8524 12.7905 3.31649 12.9747C2.33832 13.326 1.29541 13.4603 0.260133 13.3682C0.0968487 13.3431 0.0591676 13.3473 0.0172997 13.3682C-0.0245682 13.3892 0.0172997 13.4352 0.0633543 13.4771C0.272694 13.6152 0.482033 13.7367 0.699746 13.8539C1.34788 14.2074 2.03309 14.4882 2.7429 14.6913C6.4189 15.7045 10.5554 14.9592 13.3145 12.2169C15.4833 10.0649 16.2453 7.09642 16.2453 4.1238C16.2453 4.01076 16.3835 3.94377 16.463 3.88515C17.0117 3.45764 17.4954 2.95275 17.8991 2.38628C17.969 2.30184 18.0048 2.19433 17.9996 2.08483C17.9996 2.02203 17.9996 2.03459 17.92 2.06809Z" fill="black"/>
</svg>
