<svg width="17" height="10" viewBox="0 0 17 10" fill="none" xmlns="http://www.w3.org/2000/svg">
<path d="M4.63539 6.95535L2.33785 0.202977H0L3.49334 9.79702H5.68339L9.16329 0.202977H6.90606L4.63539 6.95535Z" fill="#333333"/>
<path d="M16.742 2.55751C16.5404 1.43437 15.6402 0 13.2621 0C11.4348 0 9.84933 1.27199 9.84933 3.08525C9.84933 4.50609 10.8302 5.58863 12.4425 5.89987L13.7457 6.14344C14.3772 6.26522 14.7669 6.61705 14.7669 7.1042C14.7669 7.6996 14.2563 8.10555 13.4233 8.10555C12.12 8.10555 11.5288 7.33424 11.4482 6.45467L9.5 6.92828C9.63436 8.28146 10.763 10 13.3964 10C15.6671 10 16.9166 8.47091 16.9166 6.96888C16.9166 5.60217 15.9761 4.4249 14.1623 4.0866L12.8858 3.84303C12.2275 3.72125 11.9453 3.38295 11.9453 2.92287C11.9453 2.39513 12.4559 1.89445 13.2486 1.89445C14.4041 1.89445 14.7669 2.65223 14.8341 3.09878L16.742 2.55751Z" fill="#333333"/>
</svg>
